<?xml version="1.0" standalone="no"?>
<!DOCTYPE svg PUBLIC "-//W3C//DTD SVG 20010904//EN"
 "http://www.w3.org/TR/2001/REC-SVG-20010904/DTD/svg10.dtd">
<svg version="1.0" xmlns="http://www.w3.org/2000/svg"
 width="70.000000pt" height="70.000000pt" viewBox="0 0 70.000000 70.000000"
 preserveAspectRatio="xMidYMid meet">
<metadata>
Created by potrace 1.11, written by Peter Selinger 2001-2013
</metadata>
<g transform="translate(0.000000,70.000000) scale(0.100000,-0.100000)"
fill="#000000" stroke="none">
<path d="M0 350 l0 -350 350 0 350 0 0 350 0 350 -350 0 -350 0 0 -350z m670
0 l0 -320 -320 0 -320 0 0 320 0 320 320 0 320 0 0 -320z"/>
<path d="M60 555 l0 -85 35 0 c28 0 35 -4 35 -20 0 -16 -7 -20 -30 -20 l-30 0
0 -80 0 -80 30 0 c23 0 30 -4 30 -20 0 -16 -7 -20 -35 -20 l-36 0 3 -82 3 -83
133 -3 132 -3 0 86 c0 69 -3 85 -15 85 -8 0 -15 5 -15 10 0 16 26 12 41 -6 8
-10 16 -50 19 -93 l5 -76 138 -3 137 -3 0 86 0 85 -50 0 c-39 0 -52 4 -60 20
-10 19 -8 20 50 20 l60 0 0 80 0 80 -50 0 c-43 0 -50 3 -50 20 0 17 7 20 50
20 l50 0 0 85 0 85 -134 0 c-98 0 -136 -3 -139 -12 -3 -10 -9 -10 -26 0 -14 8
-65 12 -151 12 l-130 0 0 -85z m378 9 c48 -18 62 -47 62 -120 0 -49 -4 -59
-30 -84 -32 -30 -38 -55 -16 -63 14 -5 96 -166 96 -187 0 -6 -24 -10 -52 -10
l-53 0 -30 71 c-33 79 -72 119 -116 119 l-29 0 0 -95 0 -95 -50 0 -50 0 0 240
0 240 115 0 c80 0 126 -5 153 -16z"/>
<path d="M270 436 c0 -83 9 -94 67 -80 45 11 63 33 63 76 0 53 -27 78 -85 78
l-45 0 0 -74z m95 15 c7 -23 -2 -48 -21 -55 -9 -3 -14 1 -14 14 0 11 -7 20
-15 20 -8 0 -15 9 -15 20 0 27 56 29 65 1z"/>
</g>
</svg>
